# xmcd CD database file
#
# Track frame offsets:
#	150
#	21802
#	35657
#	48406
#	60237
#	88073
#	102948
#	128384
#	140770
#	164507
#	186001
#	204184
#	219564
#	240015
#	256336
#	273654
#	292406
#	305514
#	315287
#	331588
#
# Disc length: 4779 seconds
#
# Revision: 0
# Processed by: cddbd v1.5.1PL2 Copyright (c) Steve Scherf et al.
# Submitted via: CDex 1.50
#
DISCID=1712a914
DTITLE=Pink Martini - 20 Greatest Hits
DYEAR=2005
DGENRE=Blues
TTITLE0=Amado Mio
TTITLE1=Let's Never Stop Falling in Love
TTITLE2=Simpathique
TTITLE3=Anna (El Negro Zumbon)
TTITLE4=No Hay Problema
TTITLE5=Hang On Little Tomato
TTITLE6=La Soledad
TTITLE7=Lilly
TTITLE8=Brazil
TTITLE9=Una Notte a Napoli
TTITLE10=The Gardens of Simpson and Beasley
TTITLE11=Donde Estas, Yolanda?
TTITLE12=Kikuchiiyo to Monshimasu
TTITLE13=Aspettami
TTITLE14=Clementine
TTITLE15=Que Sera Sera
TTITLE16=Dasnez-vous
TTITLE17=Song of the Black Swan
TTITLE18=Andalucia
TTITLE19=U Plavu Zoru
EXTD=YEAR: 2005
EXTT0=
EXTT1=
EXTT2=
EXTT3=
EXTT4=
EXTT5=
EXTT6=
EXTT7=
EXTT8=
EXTT9=
EXTT10=
EXTT11=
EXTT12=
EXTT13=
EXTT14=
EXTT15=
EXTT16=
EXTT17=
EXTT18=
EXTT19=
PLAYORDER=
